<?xml version="1.0" encoding="utf-8"?>
<!-- Generator: Adobe Illustrator 16.0.4, SVG Export Plug-In . SVG Version: 6.00 Build 0)  -->
<!DOCTYPE svg PUBLIC "-//W3C//DTD SVG 1.1//EN" "http://www.w3.org/Graphics/SVG/1.1/DTD/svg11.dtd">
<svg version="1.1" id="Layer_1" xmlns="http://www.w3.org/2000/svg" xmlns:xlink="http://www.w3.org/1999/xlink" x="0px" y="0px"
	 width="981px" height="226px" viewBox="0 0 981 226" enable-background="new 0 0 981 226" xml:space="preserve">
<g>
	<path d="M71.175,84.597h25.748v88.922c0,12.741-3.909,22.887-11.724,30.437c-7.817,7.552-17.859,11.326-30.127,11.326
		c-13.626,0-24.42-3.362-32.384-10.087c-7.963-6.725-11.798-16.486-11.502-29.287l0.177-0.531h25.128
		c0,6.843,1.681,11.9,5.043,15.174s7.875,4.911,13.538,4.911c4.718,0,8.583-1.961,11.591-5.884
		c3.008-3.922,4.513-9.275,4.513-16.059V84.597z"/>
	<path d="M177.174,199.267c-2.95,5.132-6.695,9.085-11.237,11.856c-4.543,2.772-9.821,4.159-15.838,4.159
		c-10.087,0-17.977-3.421-23.668-10.264c-5.693-6.842-8.538-17.46-8.538-31.853v-55.477h25.748v55.654
		c0,8.377,1.135,14.113,3.406,17.209c2.27,3.097,5.795,4.646,10.573,4.646c4.128,0,7.667-0.664,10.618-1.991
		c2.949-1.327,5.367-3.288,7.255-5.884v-69.634h25.836v95.735h-21.412L177.174,199.267z"/>
	<path d="M272.555,186.88c0-2.832-1.372-5.265-4.114-7.3c-2.743-2.035-7.831-3.818-15.263-5.353
		c-11.208-2.241-19.717-5.632-25.526-10.175c-5.811-4.542-8.715-10.706-8.715-18.492c0-8.198,3.479-15.188,10.44-20.97
		c6.959-5.78,16.221-8.671,27.783-8.671c12.091,0,21.78,2.891,29.065,8.671c7.285,5.781,10.779,12.977,10.485,21.589l-0.177,0.531
		h-24.951c0-3.833-1.239-6.959-3.716-9.379c-2.478-2.418-6.047-3.627-10.706-3.627c-4.129,0-7.403,1.033-9.821,3.097
		c-2.419,2.065-3.627,4.601-3.627,7.609c0,2.95,1.252,5.353,3.76,7.211c2.506,1.858,7.594,3.525,15.263,4.999
		c11.737,2.36,20.483,5.826,26.234,10.396c5.751,4.572,8.626,10.869,8.626,18.891c0,8.613-3.687,15.661-11.06,21.147
		c-7.375,5.485-17.107,8.229-29.199,8.229c-12.741,0-22.814-3.229-30.216-9.688c-7.403-6.459-10.927-13.817-10.573-22.076
		l0.177-0.531h23.624c0.177,5.132,1.858,8.848,5.043,11.148c3.185,2.301,7.344,3.451,12.476,3.451c4.778,0,8.419-0.958,10.927-2.876
		C271.301,192.794,272.555,190.184,272.555,186.88z"/>
	<path d="M345.197,94.242v23.447h16.192v18.139h-16.192v48.752c0,3.716,0.781,6.371,2.345,7.963
		c1.562,1.592,3.613,2.389,6.149,2.389c1.356,0,2.536-0.073,3.54-0.222c1.002-0.146,2.152-0.397,3.451-0.751l2.124,18.669
		c-2.597,0.885-5.118,1.548-7.565,1.99c-2.448,0.442-5.118,0.664-8.007,0.664c-8.907,0-15.765-2.447-20.571-7.344
		c-4.809-4.896-7.211-12.653-7.211-23.271v-48.841H305.47v-18.139h13.979V94.242H345.197z"/>
	<path d="M449.604,213.424h-25.836v-95.735h25.836V213.424z"/>
	<path d="M494.463,117.688l1.149,13.714c3.186-4.895,7.107-8.7,11.769-11.414c4.659-2.712,9.879-4.07,15.661-4.07
		c9.673,0,17.223,3.112,22.65,9.335c5.426,6.224,8.14,16.059,8.14,29.508v58.662h-25.924V154.85c0-6.842-1.194-11.693-3.584-14.555
		c-2.389-2.86-5.972-4.292-10.75-4.292c-3.835,0-7.211,0.723-10.131,2.168c-2.92,1.446-5.324,3.437-7.211,5.972v69.28h-25.836
		v-95.735H494.463z"/>
	<path d="M649.214,94.242v23.447h16.191v18.139h-16.191v48.752c0,3.716,0.781,6.371,2.345,7.963
		c1.562,1.592,3.612,2.389,6.149,2.389c1.355,0,2.535-0.073,3.539-0.222c1.002-0.146,2.152-0.397,3.45-0.751l2.124,18.669
		c-2.597,0.885-5.118,1.548-7.565,1.99c-2.448,0.442-5.118,0.664-8.007,0.664c-8.908,0-15.765-2.447-20.572-7.344
		c-4.808-4.896-7.211-12.653-7.211-23.271v-48.841h-13.979v-18.139h13.979V94.242H649.214z"/>
	<path d="M708.495,94.772h-25.836V75.396h25.836V94.772z M708.495,213.424h-25.836v-95.735h25.836V213.424z"/>
	<path d="M753.708,117.688l1.062,12.653c3.066-4.601,6.916-8.154,11.547-10.662c4.63-2.507,9.983-3.761,16.06-3.761
		c6.134,0,11.383,1.358,15.749,4.07c4.364,2.714,7.667,6.813,9.909,12.299c2.949-5.132,6.783-9.143,11.503-12.034
		c4.719-2.889,10.264-4.335,16.634-4.335c9.438,0,16.885,3.349,22.342,10.042c5.455,6.696,8.184,16.915,8.184,30.658v56.804H840.86
		v-56.893c0-7.667-1.181-13.006-3.539-16.015c-2.359-3.008-5.87-4.513-10.529-4.513c-3.657,0-6.828,0.812-9.511,2.433
		c-2.686,1.623-4.822,3.879-6.415,6.769c0,1.121,0.029,2.079,0.088,2.875s0.089,1.608,0.089,2.433v62.909h-25.748v-56.893
		c0-7.49-1.181-12.785-3.539-15.882c-2.359-3.097-5.898-4.646-10.617-4.646c-3.481,0-6.534,0.664-9.158,1.991
		c-2.625,1.327-4.793,3.201-6.503,5.619v69.811H729.73v-95.735H753.708z"/>
	<path d="M920.009,215.222c-14.093-2.287-24.396-8.396-30.91-18.327c-6.516-9.932-8.667-21.709-6.456-35.334l0.566-3.494
		c2.297-14.148,8.02-25.11,17.17-32.889c9.15-7.777,20.445-10.545,33.887-8.305c12.692,2.06,21.8,7.527,27.322,16.4
		c5.521,8.874,7.214,19.891,5.079,33.049l-2.141,13.188l-56.332-9.142l-0.348,0.482c-0.642,6.529,0.474,12.088,3.345,16.678
		c2.87,4.588,7.769,7.445,14.698,8.57c5.706,0.926,10.648,1.131,14.826,0.613c4.176-0.518,8.584-1.624,13.223-3.323l4.349,16.84
		c-4.287,2.474-9.83,4.231-16.633,5.279C934.851,216.555,927.635,216.46,920.009,215.222z M931.076,136.523
		c-5.124-0.832-9.355,0.29-12.691,3.363c-3.338,3.075-5.771,7.476-7.297,13.203l0.104,0.465l31.093,5.046l0.312-1.921
		c0.897-5.531,0.469-10.067-1.287-13.609C939.552,139.528,936.142,137.346,931.076,136.523z"/>
</g>
<path fill-rule="evenodd" clip-rule="evenodd" d="M407.43,65.7c-3.141,2.292-6.516,4.14-10.229,5.321
	c5.065,9.921,5.466,23.378,7.679,33.384c23.927,5.94,44.768,0.604,60.369-13.76c-2.126-9.68-8.738-25.08-7.79-35.55
	c-3.634-0.092-6.428-0.946-9.484-2.102c-3.271,10.512-13.464,18.642-24.944,18.542C417.452,71.49,411.608,68.729,407.43,65.7
	L407.43,65.7z M475.742,39.785c0.772-1.178,1.439-2.465,1.983-3.862c2.722-6.998,1.206-14.357-3.493-19.662
	c-10.337-10.443-22.31-5.604-32.257,4.118l-0.054,0.049c9.761-8.745,21.158-12.531,31.074-2.513
	c4.791,5.406,6.333,12.904,3.56,20.033C476.31,38.583,476.037,39.194,475.742,39.785L475.742,39.785z M439.621,20.719
	c-5.557-6.161-13.374-9.763-23.304-7.239c-3.563,0.909-6.496,2.344-8.892,4.25c1.913-1.116,4.096-2.002,6.578-2.635
	c10.137-2.576,18.117,1.111,23.778,7.41l1.127-1.103C439.142,21.169,439.38,20.943,439.621,20.719L439.621,20.719z M397.188,33.055
	c-4.857-1.16-10.208-1.151-15.172,0.129c-3.184,0.821-6.349,2.214-8.99,4.269c1.913-1.024,3.964-1.79,6.025-2.321
	c5.244-1.354,10.913-1.312,16.007,0.003l1.468,0.377l0.392-1.49C397.005,33.694,397.095,33.374,397.188,33.055L397.188,33.055z
	 M448.33,50.286c0.051-3.266-1.895-6.983-3.452-9.503c4.963,14.307-7.938,27.591-21.444,27.478
	c-9.834-0.083-18.89-5.759-21.144-17.045c-0.019,4.529,0.618,8.792,2.945,12.846c-2.359,1.296-5.495,2.416-7.999,3.348
	c-7.32,2.722-16.344,4.203-23.406,1.077c-4.801-2.125-7.817-6.005-9.5-10.885c-2.119-6.139-2.262-12.894,2.154-18.521
	c3.174-4.047,7.987-6.577,12.836-7.856c5.966-1.574,14.258,1.354,18.604-1.268c2.437-9.269,7.9-15.729,17.908-18.279
	c8.888-2.069,15.917,1.312,20.728,3.322c5.31,2.219,3.571,3.246,8.346,0.272c10.885-6.775,21.095-11.352,30.949-1.397
	c4.984,5.628,6.59,13.435,3.702,20.857C474.393,48.054,460.869,51.701,448.33,50.286z"/>
</svg>
